<svg xmlns="http://www.w3.org/2000/svg" width="100" height="100" viewBox="1590 1574 100 100">
<title>table_red — Góc Phố Việt (original vector art)</title>
<g transform="translate(1080,0)">
<g fill="#4B2E2E" stroke="#4B2E2E" stroke-width="6.0" stroke-linejoin="round" stroke-linecap="round">
<rect x="520.0" y="1600.0" width="80.0" height="16.0" rx="5.0" fill="#4B2E2E"/>
<polygon points="530.0,1614.0 540.0,1614.0 536.0,1665.0 526.0,1665.0" fill="#4B2E2E"/>
<polygon points="580.0,1614.0 590.0,1614.0 594.0,1665.0 584.0,1665.0" fill="#4B2E2E"/>
</g>
<rect x="520.0" y="1600.0" width="80.0" height="16.0" rx="5.0" fill="#D93A30"/>
<polygon points="530.0,1614.0 540.0,1614.0 536.0,1665.0 526.0,1665.0" fill="#D93A30"/>
<polygon points="580.0,1614.0 590.0,1614.0 594.0,1665.0 584.0,1665.0" fill="#D93A30"/>
<g fill="#4B2E2E" stroke="#4B2E2E" stroke-width="4.0" stroke-linejoin="round" stroke-linecap="round">
<rect x="540.0" y="1585.0" width="14.0" height="18.0" rx="3.0" fill="#4B2E2E"/>
<rect x="564.0" y="1583.0" width="14.0" height="20.0" rx="3.0" fill="#4B2E2E"/>
</g>
<rect x="540.0" y="1585.0" width="14.0" height="18.0" rx="3.0" fill="#FFFFFF"/>
<rect x="564.0" y="1583.0" width="14.0" height="20.0" rx="3.0" fill="#FFFFFF"/>
</g>
</svg>
