<svg xmlns="http://www.w3.org/2000/svg" width="2160" height="2340" viewBox="0 0 2160 2340">
<title>back — Góc Phố Việt (original vector art)</title>
<defs></defs>
<g fill="#4B2E2E" stroke="#4B2E2E" stroke-width="6.0" stroke-linejoin="round" stroke-linecap="round">
<rect x="20.0" y="520.0" width="270.0" height="820.0" rx="0.0" fill="#4B2E2E"/>
</g>
<rect x="20.0" y="520.0" width="270.0" height="820.0" rx="0.0" fill="#DCCBA4"/>
<g fill="#4B2E2E" stroke="#4B2E2E" stroke-width="6.0" stroke-linejoin="round" stroke-linecap="round">
<polygon points="0.0,536.0 155.0,420.0 310.0,536.0" fill="#4B2E2E"/>
</g>
<polygon points="0.0,536.0 155.0,420.0 310.0,536.0" fill="#B5583F"/>
<g fill="#4B2E2E" stroke="#4B2E2E" stroke-width="6.0" stroke-linejoin="round" stroke-linecap="round">
<rect x="50.0" y="590.0" width="80.0" height="120.0" rx="6.0" fill="#4B2E2E"/>
</g>
<rect x="50.0" y="590.0" width="80.0" height="120.0" rx="6.0" fill="#9C8A6E"/>
<rect x="58.0" y="598.0" width="64.0" height="104.0" rx="3.0" fill="#B8D6DE"/>
<line x1="90.0" y1="598.0" x2="90.0" y2="702.0" stroke="#9C8A6E" stroke-width="6.0" stroke-linecap="round"/>
<line x1="58.0" y1="644.0" x2="122.0" y2="644.0" stroke="#9C8A6E" stroke-width="5.0" stroke-linecap="round"/>
<polygon points="62.0,602.0 83.6,602.0 62.0,638.0" fill="#FFFFFF" opacity="0.35"/>
<g fill="#4B2E2E" stroke="#4B2E2E" stroke-width="6.0" stroke-linejoin="round" stroke-linecap="round">
<rect x="180.0" y="590.0" width="80.0" height="120.0" rx="6.0" fill="#4B2E2E"/>
</g>
<rect x="180.0" y="590.0" width="80.0" height="120.0" rx="6.0" fill="#9C8A6E"/>
<rect x="188.0" y="598.0" width="64.0" height="104.0" rx="3.0" fill="#B8D6DE"/>
<line x1="220.0" y1="598.0" x2="220.0" y2="702.0" stroke="#9C8A6E" stroke-width="6.0" stroke-linecap="round"/>
<line x1="188.0" y1="644.0" x2="252.0" y2="644.0" stroke="#9C8A6E" stroke-width="5.0" stroke-linecap="round"/>
<polygon points="192.0,602.0 213.6,602.0 192.0,638.0" fill="#FFFFFF" opacity="0.35"/>
<g fill="#4B2E2E" stroke="#4B2E2E" stroke-width="6.0" stroke-linejoin="round" stroke-linecap="round">
<rect x="50.0" y="790.0" width="80.0" height="120.0" rx="6.0" fill="#4B2E2E"/>
</g>
<rect x="50.0" y="790.0" width="80.0" height="120.0" rx="6.0" fill="#9C8A6E"/>
<rect x="58.0" y="798.0" width="64.0" height="104.0" rx="3.0" fill="#B8D6DE"/>
<line x1="90.0" y1="798.0" x2="90.0" y2="902.0" stroke="#9C8A6E" stroke-width="6.0" stroke-linecap="round"/>
<line x1="58.0" y1="844.0" x2="122.0" y2="844.0" stroke="#9C8A6E" stroke-width="5.0" stroke-linecap="round"/>
<polygon points="62.0,802.0 83.6,802.0 62.0,838.0" fill="#FFFFFF" opacity="0.35"/>
<g fill="#4B2E2E" stroke="#4B2E2E" stroke-width="6.0" stroke-linejoin="round" stroke-linecap="round">
<rect x="180.0" y="790.0" width="80.0" height="120.0" rx="6.0" fill="#4B2E2E"/>
</g>
<rect x="180.0" y="790.0" width="80.0" height="120.0" rx="6.0" fill="#9C8A6E"/>
<rect x="188.0" y="798.0" width="64.0" height="104.0" rx="3.0" fill="#B8D6DE"/>
<line x1="220.0" y1="798.0" x2="220.0" y2="902.0" stroke="#9C8A6E" stroke-width="6.0" stroke-linecap="round"/>
<line x1="188.0" y1="844.0" x2="252.0" y2="844.0" stroke="#9C8A6E" stroke-width="5.0" stroke-linecap="round"/>
<polygon points="192.0,802.0 213.6,802.0 192.0,838.0" fill="#FFFFFF" opacity="0.35"/>
<g fill="#4B2E2E" stroke="#4B2E2E" stroke-width="6.0" stroke-linejoin="round" stroke-linecap="round">
<rect x="50.0" y="990.0" width="80.0" height="120.0" rx="6.0" fill="#4B2E2E"/>
</g>
<rect x="50.0" y="990.0" width="80.0" height="120.0" rx="6.0" fill="#9C8A6E"/>
<rect x="58.0" y="998.0" width="64.0" height="104.0" rx="3.0" fill="#B8D6DE"/>
<line x1="90.0" y1="998.0" x2="90.0" y2="1102.0" stroke="#9C8A6E" stroke-width="6.0" stroke-linecap="round"/>
<line x1="58.0" y1="1044.0" x2="122.0" y2="1044.0" stroke="#9C8A6E" stroke-width="5.0" stroke-linecap="round"/>
<polygon points="62.0,1002.0 83.6,1002.0 62.0,1038.0" fill="#FFFFFF" opacity="0.35"/>
<g fill="#4B2E2E" stroke="#4B2E2E" stroke-width="6.0" stroke-linejoin="round" stroke-linecap="round">
<rect x="180.0" y="990.0" width="80.0" height="120.0" rx="6.0" fill="#4B2E2E"/>
</g>
<rect x="180.0" y="990.0" width="80.0" height="120.0" rx="6.0" fill="#9C8A6E"/>
<rect x="188.0" y="998.0" width="64.0" height="104.0" rx="3.0" fill="#B8D6DE"/>
<line x1="220.0" y1="998.0" x2="220.0" y2="1102.0" stroke="#9C8A6E" stroke-width="6.0" stroke-linecap="round"/>
<line x1="188.0" y1="1044.0" x2="252.0" y2="1044.0" stroke="#9C8A6E" stroke-width="5.0" stroke-linecap="round"/>
<polygon points="192.0,1002.0 213.6,1002.0 192.0,1038.0" fill="#FFFFFF" opacity="0.35"/>
<g fill="#4B2E2E" stroke="#4B2E2E" stroke-width="6.0" stroke-linejoin="round" stroke-linecap="round">
<rect x="330.0" y="400.0" width="310.0" height="940.0" rx="0.0" fill="#4B2E2E"/>
</g>
<rect x="330.0" y="400.0" width="310.0" height="940.0" rx="0.0" fill="#C9D9C4"/>
<g fill="#4B2E2E" stroke="#4B2E2E" stroke-width="6.0" stroke-linejoin="round" stroke-linecap="round">
<rect x="320.0" y="386.0" width="330.0" height="26.0" rx="4.0" fill="#4B2E2E"/>
</g>
<rect x="320.0" y="386.0" width="330.0" height="26.0" rx="4.0" fill="#B9B2A2"/>
<g fill="#4B2E2E" stroke="#4B2E2E" stroke-width="6.0" stroke-linejoin="round" stroke-linecap="round">
<rect x="516.0" y="316.0" width="70.0" height="60.0" rx="8.0" fill="#4B2E2E"/>
</g>
<rect x="516.0" y="316.0" width="70.0" height="60.0" rx="8.0" fill="#9FB3BF"/>
<line x1="526.0" y1="376.0" x2="526.0" y2="388.0" stroke="#3E3A3A" stroke-width="4.0" stroke-linecap="round"/>
<line x1="576.0" y1="376.0" x2="576.0" y2="388.0" stroke="#3E3A3A" stroke-width="4.0" stroke-linecap="round"/>
<g fill="#4B2E2E" stroke="#4B2E2E" stroke-width="6.0" stroke-linejoin="round" stroke-linecap="round">
<rect x="360.0" y="470.0" width="80.0" height="120.0" rx="6.0" fill="#4B2E2E"/>
</g>
<rect x="360.0" y="470.0" width="80.0" height="120.0" rx="6.0" fill="#9C8A6E"/>
<rect x="368.0" y="478.0" width="64.0" height="104.0" rx="3.0" fill="#B8D6DE"/>
<line x1="400.0" y1="478.0" x2="400.0" y2="582.0" stroke="#9C8A6E" stroke-width="6.0" stroke-linecap="round"/>
<line x1="368.0" y1="524.0" x2="432.0" y2="524.0" stroke="#9C8A6E" stroke-width="5.0" stroke-linecap="round"/>
<polygon points="372.0,482.0 393.6,482.0 372.0,518.0" fill="#FFFFFF" opacity="0.35"/>
<g fill="#4B2E2E" stroke="#4B2E2E" stroke-width="6.0" stroke-linejoin="round" stroke-linecap="round">
<rect x="530.0" y="470.0" width="80.0" height="120.0" rx="6.0" fill="#4B2E2E"/>
</g>
<rect x="530.0" y="470.0" width="80.0" height="120.0" rx="6.0" fill="#9C8A6E"/>
<rect x="538.0" y="478.0" width="64.0" height="104.0" rx="3.0" fill="#B8D6DE"/>
<line x1="570.0" y1="478.0" x2="570.0" y2="582.0" stroke="#9C8A6E" stroke-width="6.0" stroke-linecap="round"/>
<line x1="538.0" y1="524.0" x2="602.0" y2="524.0" stroke="#9C8A6E" stroke-width="5.0" stroke-linecap="round"/>
<polygon points="542.0,482.0 563.6,482.0 542.0,518.0" fill="#FFFFFF" opacity="0.35"/>
<g fill="#4B2E2E" stroke="#4B2E2E" stroke-width="6.0" stroke-linejoin="round" stroke-linecap="round">
<rect x="360.0" y="670.0" width="80.0" height="120.0" rx="6.0" fill="#4B2E2E"/>
</g>
<rect x="360.0" y="670.0" width="80.0" height="120.0" rx="6.0" fill="#9C8A6E"/>
<rect x="368.0" y="678.0" width="64.0" height="104.0" rx="3.0" fill="#B8D6DE"/>
<line x1="400.0" y1="678.0" x2="400.0" y2="782.0" stroke="#9C8A6E" stroke-width="6.0" stroke-linecap="round"/>
<line x1="368.0" y1="724.0" x2="432.0" y2="724.0" stroke="#9C8A6E" stroke-width="5.0" stroke-linecap="round"/>
<polygon points="372.0,682.0 393.6,682.0 372.0,718.0" fill="#FFFFFF" opacity="0.35"/>
<g fill="#4B2E2E" stroke="#4B2E2E" stroke-width="6.0" stroke-linejoin="round" stroke-linecap="round">
<rect x="530.0" y="670.0" width="80.0" height="120.0" rx="6.0" fill="#4B2E2E"/>
</g>
<rect x="530.0" y="670.0" width="80.0" height="120.0" rx="6.0" fill="#9C8A6E"/>
<rect x="538.0" y="678.0" width="64.0" height="104.0" rx="3.0" fill="#B8D6DE"/>
<line x1="570.0" y1="678.0" x2="570.0" y2="782.0" stroke="#9C8A6E" stroke-width="6.0" stroke-linecap="round"/>
<line x1="538.0" y1="724.0" x2="602.0" y2="724.0" stroke="#9C8A6E" stroke-width="5.0" stroke-linecap="round"/>
<polygon points="542.0,682.0 563.6,682.0 542.0,718.0" fill="#FFFFFF" opacity="0.35"/>
<g fill="#4B2E2E" stroke="#4B2E2E" stroke-width="6.0" stroke-linejoin="round" stroke-linecap="round">
<rect x="360.0" y="870.0" width="80.0" height="120.0" rx="6.0" fill="#4B2E2E"/>
</g>
<rect x="360.0" y="870.0" width="80.0" height="120.0" rx="6.0" fill="#9C8A6E"/>
<rect x="368.0" y="878.0" width="64.0" height="104.0" rx="3.0" fill="#B8D6DE"/>
<line x1="400.0" y1="878.0" x2="400.0" y2="982.0" stroke="#9C8A6E" stroke-width="6.0" stroke-linecap="round"/>
<line x1="368.0" y1="924.0" x2="432.0" y2="924.0" stroke="#9C8A6E" stroke-width="5.0" stroke-linecap="round"/>
<polygon points="372.0,882.0 393.6,882.0 372.0,918.0" fill="#FFFFFF" opacity="0.35"/>
<g fill="#4B2E2E" stroke="#4B2E2E" stroke-width="6.0" stroke-linejoin="round" stroke-linecap="round">
<rect x="530.0" y="870.0" width="80.0" height="120.0" rx="6.0" fill="#4B2E2E"/>
</g>
<rect x="530.0" y="870.0" width="80.0" height="120.0" rx="6.0" fill="#9C8A6E"/>
<rect x="538.0" y="878.0" width="64.0" height="104.0" rx="3.0" fill="#B8D6DE"/>
<line x1="570.0" y1="878.0" x2="570.0" y2="982.0" stroke="#9C8A6E" stroke-width="6.0" stroke-linecap="round"/>
<line x1="538.0" y1="924.0" x2="602.0" y2="924.0" stroke="#9C8A6E" stroke-width="5.0" stroke-linecap="round"/>
<polygon points="542.0,882.0 563.6,882.0 542.0,918.0" fill="#FFFFFF" opacity="0.35"/>
<g fill="#4B2E2E" stroke="#4B2E2E" stroke-width="6.0" stroke-linejoin="round" stroke-linecap="round">
<rect x="360.0" y="1070.0" width="80.0" height="120.0" rx="6.0" fill="#4B2E2E"/>
</g>
<rect x="360.0" y="1070.0" width="80.0" height="120.0" rx="6.0" fill="#9C8A6E"/>
<rect x="368.0" y="1078.0" width="64.0" height="104.0" rx="3.0" fill="#B8D6DE"/>
<line x1="400.0" y1="1078.0" x2="400.0" y2="1182.0" stroke="#9C8A6E" stroke-width="6.0" stroke-linecap="round"/>
<line x1="368.0" y1="1124.0" x2="432.0" y2="1124.0" stroke="#9C8A6E" stroke-width="5.0" stroke-linecap="round"/>
<polygon points="372.0,1082.0 393.6,1082.0 372.0,1118.0" fill="#FFFFFF" opacity="0.35"/>
<g fill="#4B2E2E" stroke="#4B2E2E" stroke-width="6.0" stroke-linejoin="round" stroke-linecap="round">
<rect x="530.0" y="1070.0" width="80.0" height="120.0" rx="6.0" fill="#4B2E2E"/>
</g>
<rect x="530.0" y="1070.0" width="80.0" height="120.0" rx="6.0" fill="#9C8A6E"/>
<rect x="538.0" y="1078.0" width="64.0" height="104.0" rx="3.0" fill="#B8D6DE"/>
<line x1="570.0" y1="1078.0" x2="570.0" y2="1182.0" stroke="#9C8A6E" stroke-width="6.0" stroke-linecap="round"/>
<line x1="538.0" y1="1124.0" x2="602.0" y2="1124.0" stroke="#9C8A6E" stroke-width="5.0" stroke-linecap="round"/>
<polygon points="542.0,1082.0 563.6,1082.0 542.0,1118.0" fill="#FFFFFF" opacity="0.35"/>
<g fill="#4B2E2E" stroke="#4B2E2E" stroke-width="6.0" stroke-linejoin="round" stroke-linecap="round">
<rect x="1090.0" y="500.0" width="280.0" height="840.0" rx="0.0" fill="#4B2E2E"/>
</g>
<rect x="1090.0" y="500.0" width="280.0" height="840.0" rx="0.0" fill="#E5D2A9"/>
<g fill="#4B2E2E" stroke="#4B2E2E" stroke-width="6.0" stroke-linejoin="round" stroke-linecap="round">
<polygon points="1070.0,516.0 1230.0,400.0 1390.0,516.0" fill="#4B2E2E"/>
</g>
<polygon points="1070.0,516.0 1230.0,400.0 1390.0,516.0" fill="#B5583F"/>
<g fill="#4B2E2E" stroke="#4B2E2E" stroke-width="6.0" stroke-linejoin="round" stroke-linecap="round">
<rect x="1120.0" y="570.0" width="80.0" height="120.0" rx="6.0" fill="#4B2E2E"/>
</g>
<rect x="1120.0" y="570.0" width="80.0" height="120.0" rx="6.0" fill="#9C8A6E"/>
<rect x="1128.0" y="578.0" width="64.0" height="104.0" rx="3.0" fill="#B8D6DE"/>
<line x1="1160.0" y1="578.0" x2="1160.0" y2="682.0" stroke="#9C8A6E" stroke-width="6.0" stroke-linecap="round"/>
<line x1="1128.0" y1="624.0" x2="1192.0" y2="624.0" stroke="#9C8A6E" stroke-width="5.0" stroke-linecap="round"/>
<polygon points="1132.0,582.0 1153.6,582.0 1132.0,618.0" fill="#FFFFFF" opacity="0.35"/>
<g fill="#4B2E2E" stroke="#4B2E2E" stroke-width="6.0" stroke-linejoin="round" stroke-linecap="round">
<rect x="1260.0" y="570.0" width="80.0" height="120.0" rx="6.0" fill="#4B2E2E"/>
</g>
<rect x="1260.0" y="570.0" width="80.0" height="120.0" rx="6.0" fill="#9C8A6E"/>
<rect x="1268.0" y="578.0" width="64.0" height="104.0" rx="3.0" fill="#B8D6DE"/>
<line x1="1300.0" y1="578.0" x2="1300.0" y2="682.0" stroke="#9C8A6E" stroke-width="6.0" stroke-linecap="round"/>
<line x1="1268.0" y1="624.0" x2="1332.0" y2="624.0" stroke="#9C8A6E" stroke-width="5.0" stroke-linecap="round"/>
<polygon points="1272.0,582.0 1293.6,582.0 1272.0,618.0" fill="#FFFFFF" opacity="0.35"/>
<g fill="#4B2E2E" stroke="#4B2E2E" stroke-width="6.0" stroke-linejoin="round" stroke-linecap="round">
<rect x="1120.0" y="770.0" width="80.0" height="120.0" rx="6.0" fill="#4B2E2E"/>
</g>
<rect x="1120.0" y="770.0" width="80.0" height="120.0" rx="6.0" fill="#9C8A6E"/>
<rect x="1128.0" y="778.0" width="64.0" height="104.0" rx="3.0" fill="#B8D6DE"/>
<line x1="1160.0" y1="778.0" x2="1160.0" y2="882.0" stroke="#9C8A6E" stroke-width="6.0" stroke-linecap="round"/>
<line x1="1128.0" y1="824.0" x2="1192.0" y2="824.0" stroke="#9C8A6E" stroke-width="5.0" stroke-linecap="round"/>
<polygon points="1132.0,782.0 1153.6,782.0 1132.0,818.0" fill="#FFFFFF" opacity="0.35"/>
<g fill="#4B2E2E" stroke="#4B2E2E" stroke-width="6.0" stroke-linejoin="round" stroke-linecap="round">
<rect x="1260.0" y="770.0" width="80.0" height="120.0" rx="6.0" fill="#4B2E2E"/>
</g>
<rect x="1260.0" y="770.0" width="80.0" height="120.0" rx="6.0" fill="#9C8A6E"/>
<rect x="1268.0" y="778.0" width="64.0" height="104.0" rx="3.0" fill="#B8D6DE"/>
<line x1="1300.0" y1="778.0" x2="1300.0" y2="882.0" stroke="#9C8A6E" stroke-width="6.0" stroke-linecap="round"/>
<line x1="1268.0" y1="824.0" x2="1332.0" y2="824.0" stroke="#9C8A6E" stroke-width="5.0" stroke-linecap="round"/>
<polygon points="1272.0,782.0 1293.6,782.0 1272.0,818.0" fill="#FFFFFF" opacity="0.35"/>
<g fill="#4B2E2E" stroke="#4B2E2E" stroke-width="6.0" stroke-linejoin="round" stroke-linecap="round">
<rect x="1120.0" y="970.0" width="80.0" height="120.0" rx="6.0" fill="#4B2E2E"/>
</g>
<rect x="1120.0" y="970.0" width="80.0" height="120.0" rx="6.0" fill="#9C8A6E"/>
<rect x="1128.0" y="978.0" width="64.0" height="104.0" rx="3.0" fill="#B8D6DE"/>
<line x1="1160.0" y1="978.0" x2="1160.0" y2="1082.0" stroke="#9C8A6E" stroke-width="6.0" stroke-linecap="round"/>
<line x1="1128.0" y1="1024.0" x2="1192.0" y2="1024.0" stroke="#9C8A6E" stroke-width="5.0" stroke-linecap="round"/>
<polygon points="1132.0,982.0 1153.6,982.0 1132.0,1018.0" fill="#FFFFFF" opacity="0.35"/>
<g fill="#4B2E2E" stroke="#4B2E2E" stroke-width="6.0" stroke-linejoin="round" stroke-linecap="round">
<rect x="1260.0" y="970.0" width="80.0" height="120.0" rx="6.0" fill="#4B2E2E"/>
</g>
<rect x="1260.0" y="970.0" width="80.0" height="120.0" rx="6.0" fill="#9C8A6E"/>
<rect x="1268.0" y="978.0" width="64.0" height="104.0" rx="3.0" fill="#B8D6DE"/>
<line x1="1300.0" y1="978.0" x2="1300.0" y2="1082.0" stroke="#9C8A6E" stroke-width="6.0" stroke-linecap="round"/>
<line x1="1268.0" y1="1024.0" x2="1332.0" y2="1024.0" stroke="#9C8A6E" stroke-width="5.0" stroke-linecap="round"/>
<polygon points="1272.0,982.0 1293.6,982.0 1272.0,1018.0" fill="#FFFFFF" opacity="0.35"/>
<g fill="#4B2E2E" stroke="#4B2E2E" stroke-width="6.0" stroke-linejoin="round" stroke-linecap="round">
<rect x="1410.0" y="360.0" width="330.0" height="980.0" rx="0.0" fill="#4B2E2E"/>
</g>
<rect x="1410.0" y="360.0" width="330.0" height="980.0" rx="0.0" fill="#C9D0DE"/>
<g fill="#4B2E2E" stroke="#4B2E2E" stroke-width="6.0" stroke-linejoin="round" stroke-linecap="round">
<rect x="1400.0" y="346.0" width="350.0" height="26.0" rx="4.0" fill="#4B2E2E"/>
</g>
<rect x="1400.0" y="346.0" width="350.0" height="26.0" rx="4.0" fill="#B9B2A2"/>
<g fill="#4B2E2E" stroke="#4B2E2E" stroke-width="6.0" stroke-linejoin="round" stroke-linecap="round">
<rect x="1608.0" y="276.0" width="70.0" height="60.0" rx="8.0" fill="#4B2E2E"/>
</g>
<rect x="1608.0" y="276.0" width="70.0" height="60.0" rx="8.0" fill="#9FB3BF"/>
<line x1="1618.0" y1="336.0" x2="1618.0" y2="348.0" stroke="#3E3A3A" stroke-width="4.0" stroke-linecap="round"/>
<line x1="1668.0" y1="336.0" x2="1668.0" y2="348.0" stroke="#3E3A3A" stroke-width="4.0" stroke-linecap="round"/>
<g fill="#4B2E2E" stroke="#4B2E2E" stroke-width="6.0" stroke-linejoin="round" stroke-linecap="round">
<rect x="1440.0" y="430.0" width="80.0" height="120.0" rx="6.0" fill="#4B2E2E"/>
</g>
<rect x="1440.0" y="430.0" width="80.0" height="120.0" rx="6.0" fill="#9C8A6E"/>
<rect x="1448.0" y="438.0" width="64.0" height="104.0" rx="3.0" fill="#B8D6DE"/>
<line x1="1480.0" y1="438.0" x2="1480.0" y2="542.0" stroke="#9C8A6E" stroke-width="6.0" stroke-linecap="round"/>
<line x1="1448.0" y1="484.0" x2="1512.0" y2="484.0" stroke="#9C8A6E" stroke-width="5.0" stroke-linecap="round"/>
<polygon points="1452.0,442.0 1473.6,442.0 1452.0,478.0" fill="#FFFFFF" opacity="0.35"/>
<g fill="#4B2E2E" stroke="#4B2E2E" stroke-width="6.0" stroke-linejoin="round" stroke-linecap="round">
<rect x="1630.0" y="430.0" width="80.0" height="120.0" rx="6.0" fill="#4B2E2E"/>
</g>
<rect x="1630.0" y="430.0" width="80.0" height="120.0" rx="6.0" fill="#9C8A6E"/>
<rect x="1638.0" y="438.0" width="64.0" height="104.0" rx="3.0" fill="#B8D6DE"/>
<line x1="1670.0" y1="438.0" x2="1670.0" y2="542.0" stroke="#9C8A6E" stroke-width="6.0" stroke-linecap="round"/>
<line x1="1638.0" y1="484.0" x2="1702.0" y2="484.0" stroke="#9C8A6E" stroke-width="5.0" stroke-linecap="round"/>
<polygon points="1642.0,442.0 1663.6,442.0 1642.0,478.0" fill="#FFFFFF" opacity="0.35"/>
<g fill="#4B2E2E" stroke="#4B2E2E" stroke-width="6.0" stroke-linejoin="round" stroke-linecap="round">
<rect x="1440.0" y="630.0" width="80.0" height="120.0" rx="6.0" fill="#4B2E2E"/>
</g>
<rect x="1440.0" y="630.0" width="80.0" height="120.0" rx="6.0" fill="#9C8A6E"/>
<rect x="1448.0" y="638.0" width="64.0" height="104.0" rx="3.0" fill="#B8D6DE"/>
<line x1="1480.0" y1="638.0" x2="1480.0" y2="742.0" stroke="#9C8A6E" stroke-width="6.0" stroke-linecap="round"/>
<line x1="1448.0" y1="684.0" x2="1512.0" y2="684.0" stroke="#9C8A6E" stroke-width="5.0" stroke-linecap="round"/>
<polygon points="1452.0,642.0 1473.6,642.0 1452.0,678.0" fill="#FFFFFF" opacity="0.35"/>
<g fill="#4B2E2E" stroke="#4B2E2E" stroke-width="6.0" stroke-linejoin="round" stroke-linecap="round">
<rect x="1630.0" y="630.0" width="80.0" height="120.0" rx="6.0" fill="#4B2E2E"/>
</g>
<rect x="1630.0" y="630.0" width="80.0" height="120.0" rx="6.0" fill="#9C8A6E"/>
<rect x="1638.0" y="638.0" width="64.0" height="104.0" rx="3.0" fill="#B8D6DE"/>
<line x1="1670.0" y1="638.0" x2="1670.0" y2="742.0" stroke="#9C8A6E" stroke-width="6.0" stroke-linecap="round"/>
<line x1="1638.0" y1="684.0" x2="1702.0" y2="684.0" stroke="#9C8A6E" stroke-width="5.0" stroke-linecap="round"/>
<polygon points="1642.0,642.0 1663.6,642.0 1642.0,678.0" fill="#FFFFFF" opacity="0.35"/>
<g fill="#4B2E2E" stroke="#4B2E2E" stroke-width="6.0" stroke-linejoin="round" stroke-linecap="round">
<rect x="1440.0" y="830.0" width="80.0" height="120.0" rx="6.0" fill="#4B2E2E"/>
</g>
<rect x="1440.0" y="830.0" width="80.0" height="120.0" rx="6.0" fill="#9C8A6E"/>
<rect x="1448.0" y="838.0" width="64.0" height="104.0" rx="3.0" fill="#B8D6DE"/>
<line x1="1480.0" y1="838.0" x2="1480.0" y2="942.0" stroke="#9C8A6E" stroke-width="6.0" stroke-linecap="round"/>
<line x1="1448.0" y1="884.0" x2="1512.0" y2="884.0" stroke="#9C8A6E" stroke-width="5.0" stroke-linecap="round"/>
<polygon points="1452.0,842.0 1473.6,842.0 1452.0,878.0" fill="#FFFFFF" opacity="0.35"/>
<g fill="#4B2E2E" stroke="#4B2E2E" stroke-width="6.0" stroke-linejoin="round" stroke-linecap="round">
<rect x="1630.0" y="830.0" width="80.0" height="120.0" rx="6.0" fill="#4B2E2E"/>
</g>
<rect x="1630.0" y="830.0" width="80.0" height="120.0" rx="6.0" fill="#9C8A6E"/>
<rect x="1638.0" y="838.0" width="64.0" height="104.0" rx="3.0" fill="#B8D6DE"/>
<line x1="1670.0" y1="838.0" x2="1670.0" y2="942.0" stroke="#9C8A6E" stroke-width="6.0" stroke-linecap="round"/>
<line x1="1638.0" y1="884.0" x2="1702.0" y2="884.0" stroke="#9C8A6E" stroke-width="5.0" stroke-linecap="round"/>
<polygon points="1642.0,842.0 1663.6,842.0 1642.0,878.0" fill="#FFFFFF" opacity="0.35"/>
<g fill="#4B2E2E" stroke="#4B2E2E" stroke-width="6.0" stroke-linejoin="round" stroke-linecap="round">
<rect x="1440.0" y="1030.0" width="80.0" height="120.0" rx="6.0" fill="#4B2E2E"/>
</g>
<rect x="1440.0" y="1030.0" width="80.0" height="120.0" rx="6.0" fill="#9C8A6E"/>
<rect x="1448.0" y="1038.0" width="64.0" height="104.0" rx="3.0" fill="#B8D6DE"/>
<line x1="1480.0" y1="1038.0" x2="1480.0" y2="1142.0" stroke="#9C8A6E" stroke-width="6.0" stroke-linecap="round"/>
<line x1="1448.0" y1="1084.0" x2="1512.0" y2="1084.0" stroke="#9C8A6E" stroke-width="5.0" stroke-linecap="round"/>
<polygon points="1452.0,1042.0 1473.6,1042.0 1452.0,1078.0" fill="#FFFFFF" opacity="0.35"/>
<g fill="#4B2E2E" stroke="#4B2E2E" stroke-width="6.0" stroke-linejoin="round" stroke-linecap="round">
<rect x="1630.0" y="1030.0" width="80.0" height="120.0" rx="6.0" fill="#4B2E2E"/>
</g>
<rect x="1630.0" y="1030.0" width="80.0" height="120.0" rx="6.0" fill="#9C8A6E"/>
<rect x="1638.0" y="1038.0" width="64.0" height="104.0" rx="3.0" fill="#B8D6DE"/>
<line x1="1670.0" y1="1038.0" x2="1670.0" y2="1142.0" stroke="#9C8A6E" stroke-width="6.0" stroke-linecap="round"/>
<line x1="1638.0" y1="1084.0" x2="1702.0" y2="1084.0" stroke="#9C8A6E" stroke-width="5.0" stroke-linecap="round"/>
<polygon points="1642.0,1042.0 1663.6,1042.0 1642.0,1078.0" fill="#FFFFFF" opacity="0.35"/>
<g fill="#4B2E2E" stroke="#4B2E2E" stroke-width="6.0" stroke-linejoin="round" stroke-linecap="round">
<rect x="1780.0" y="470.0" width="320.0" height="870.0" rx="0.0" fill="#4B2E2E"/>
</g>
<rect x="1780.0" y="470.0" width="320.0" height="870.0" rx="0.0" fill="#E8C5B1"/>
<g fill="#4B2E2E" stroke="#4B2E2E" stroke-width="6.0" stroke-linejoin="round" stroke-linecap="round">
<polygon points="1760.0,486.0 1940.0,370.0 2120.0,486.0" fill="#4B2E2E"/>
</g>
<polygon points="1760.0,486.0 1940.0,370.0 2120.0,486.0" fill="#A9573F"/>
<g fill="#4B2E2E" stroke="#4B2E2E" stroke-width="6.0" stroke-linejoin="round" stroke-linecap="round">
<rect x="1810.0" y="540.0" width="80.0" height="120.0" rx="6.0" fill="#4B2E2E"/>
</g>
<rect x="1810.0" y="540.0" width="80.0" height="120.0" rx="6.0" fill="#9C8A6E"/>
<rect x="1818.0" y="548.0" width="64.0" height="104.0" rx="3.0" fill="#B8D6DE"/>
<line x1="1850.0" y1="548.0" x2="1850.0" y2="652.0" stroke="#9C8A6E" stroke-width="6.0" stroke-linecap="round"/>
<line x1="1818.0" y1="594.0" x2="1882.0" y2="594.0" stroke="#9C8A6E" stroke-width="5.0" stroke-linecap="round"/>
<polygon points="1822.0,552.0 1843.6,552.0 1822.0,588.0" fill="#FFFFFF" opacity="0.35"/>
<g fill="#4B2E2E" stroke="#4B2E2E" stroke-width="6.0" stroke-linejoin="round" stroke-linecap="round">
<rect x="1990.0" y="540.0" width="80.0" height="120.0" rx="6.0" fill="#4B2E2E"/>
</g>
<rect x="1990.0" y="540.0" width="80.0" height="120.0" rx="6.0" fill="#9C8A6E"/>
<rect x="1998.0" y="548.0" width="64.0" height="104.0" rx="3.0" fill="#B8D6DE"/>
<line x1="2030.0" y1="548.0" x2="2030.0" y2="652.0" stroke="#9C8A6E" stroke-width="6.0" stroke-linecap="round"/>
<line x1="1998.0" y1="594.0" x2="2062.0" y2="594.0" stroke="#9C8A6E" stroke-width="5.0" stroke-linecap="round"/>
<polygon points="2002.0,552.0 2023.6,552.0 2002.0,588.0" fill="#FFFFFF" opacity="0.35"/>
<g fill="#4B2E2E" stroke="#4B2E2E" stroke-width="6.0" stroke-linejoin="round" stroke-linecap="round">
<rect x="1810.0" y="740.0" width="80.0" height="120.0" rx="6.0" fill="#4B2E2E"/>
</g>
<rect x="1810.0" y="740.0" width="80.0" height="120.0" rx="6.0" fill="#9C8A6E"/>
<rect x="1818.0" y="748.0" width="64.0" height="104.0" rx="3.0" fill="#B8D6DE"/>
<line x1="1850.0" y1="748.0" x2="1850.0" y2="852.0" stroke="#9C8A6E" stroke-width="6.0" stroke-linecap="round"/>
<line x1="1818.0" y1="794.0" x2="1882.0" y2="794.0" stroke="#9C8A6E" stroke-width="5.0" stroke-linecap="round"/>
<polygon points="1822.0,752.0 1843.6,752.0 1822.0,788.0" fill="#FFFFFF" opacity="0.35"/>
<g fill="#4B2E2E" stroke="#4B2E2E" stroke-width="6.0" stroke-linejoin="round" stroke-linecap="round">
<rect x="1990.0" y="740.0" width="80.0" height="120.0" rx="6.0" fill="#4B2E2E"/>
</g>
<rect x="1990.0" y="740.0" width="80.0" height="120.0" rx="6.0" fill="#9C8A6E"/>
<rect x="1998.0" y="748.0" width="64.0" height="104.0" rx="3.0" fill="#B8D6DE"/>
<line x1="2030.0" y1="748.0" x2="2030.0" y2="852.0" stroke="#9C8A6E" stroke-width="6.0" stroke-linecap="round"/>
<line x1="1998.0" y1="794.0" x2="2062.0" y2="794.0" stroke="#9C8A6E" stroke-width="5.0" stroke-linecap="round"/>
<polygon points="2002.0,752.0 2023.6,752.0 2002.0,788.0" fill="#FFFFFF" opacity="0.35"/>
<g fill="#4B2E2E" stroke="#4B2E2E" stroke-width="6.0" stroke-linejoin="round" stroke-linecap="round">
<rect x="1810.0" y="940.0" width="80.0" height="120.0" rx="6.0" fill="#4B2E2E"/>
</g>
<rect x="1810.0" y="940.0" width="80.0" height="120.0" rx="6.0" fill="#9C8A6E"/>
<rect x="1818.0" y="948.0" width="64.0" height="104.0" rx="3.0" fill="#B8D6DE"/>
<line x1="1850.0" y1="948.0" x2="1850.0" y2="1052.0" stroke="#9C8A6E" stroke-width="6.0" stroke-linecap="round"/>
<line x1="1818.0" y1="994.0" x2="1882.0" y2="994.0" stroke="#9C8A6E" stroke-width="5.0" stroke-linecap="round"/>
<polygon points="1822.0,952.0 1843.6,952.0 1822.0,988.0" fill="#FFFFFF" opacity="0.35"/>
<g fill="#4B2E2E" stroke="#4B2E2E" stroke-width="6.0" stroke-linejoin="round" stroke-linecap="round">
<rect x="1990.0" y="940.0" width="80.0" height="120.0" rx="6.0" fill="#4B2E2E"/>
</g>
<rect x="1990.0" y="940.0" width="80.0" height="120.0" rx="6.0" fill="#9C8A6E"/>
<rect x="1998.0" y="948.0" width="64.0" height="104.0" rx="3.0" fill="#B8D6DE"/>
<line x1="2030.0" y1="948.0" x2="2030.0" y2="1052.0" stroke="#9C8A6E" stroke-width="6.0" stroke-linecap="round"/>
<line x1="1998.0" y1="994.0" x2="2062.0" y2="994.0" stroke="#9C8A6E" stroke-width="5.0" stroke-linecap="round"/>
<polygon points="2002.0,952.0 2023.6,952.0 2002.0,988.0" fill="#FFFFFF" opacity="0.35"/>
<g transform="translate(540,0)">
<g fill="#4B2E2E" stroke="#4B2E2E" stroke-width="6.0" stroke-linejoin="round" stroke-linecap="round">
<rect x="170.0" y="430.0" width="300.0" height="900.0" rx="0.0" fill="#4B2E2E"/>
</g>
<rect x="170.0" y="430.0" width="300.0" height="900.0" rx="0.0" fill="#E8B9A2"/>
<g fill="#4B2E2E" stroke="#4B2E2E" stroke-width="6.0" stroke-linejoin="round" stroke-linecap="round">
<polygon points="150.0,450.0 330.0,330.0 500.0,450.0" fill="#4B2E2E"/>
</g>
<polygon points="150.0,450.0 330.0,330.0 500.0,450.0" fill="#C9674E"/>
<g fill="#4B2E2E" stroke="#4B2E2E" stroke-width="6.0" stroke-linejoin="round" stroke-linecap="round">
<rect x="200.0" y="520.0" width="90.0" height="130.0" rx="6.0" fill="#4B2E2E"/>
</g>
<rect x="200.0" y="520.0" width="90.0" height="130.0" rx="6.0" fill="#B9806A"/>
<rect x="208.0" y="528.0" width="74.0" height="114.0" rx="3.0" fill="#B8D6DE"/>
<line x1="245.0" y1="528.0" x2="245.0" y2="642.0" stroke="#B9806A" stroke-width="6.0" stroke-linecap="round"/>
<line x1="208.0" y1="578.5" x2="282.0" y2="578.5" stroke="#B9806A" stroke-width="5.0" stroke-linecap="round"/>
<polygon points="212.0,532.0 237.8,532.0 212.0,572.0" fill="#FFFFFF" opacity="0.35"/>
<g fill="#4B2E2E" stroke="#4B2E2E" stroke-width="6.0" stroke-linejoin="round" stroke-linecap="round">
<rect x="330.0" y="520.0" width="90.0" height="130.0" rx="6.0" fill="#4B2E2E"/>
</g>
<rect x="330.0" y="520.0" width="90.0" height="130.0" rx="6.0" fill="#B9806A"/>
<rect x="338.0" y="528.0" width="74.0" height="114.0" rx="3.0" fill="#B8D6DE"/>
<line x1="375.0" y1="528.0" x2="375.0" y2="642.0" stroke="#B9806A" stroke-width="6.0" stroke-linecap="round"/>
<line x1="338.0" y1="578.5" x2="412.0" y2="578.5" stroke="#B9806A" stroke-width="5.0" stroke-linecap="round"/>
<polygon points="342.0,532.0 367.8,532.0 342.0,572.0" fill="#FFFFFF" opacity="0.35"/>
<g fill="#4B2E2E" stroke="#4B2E2E" stroke-width="6.0" stroke-linejoin="round" stroke-linecap="round">
<rect x="200.0" y="720.0" width="90.0" height="130.0" rx="6.0" fill="#4B2E2E"/>
</g>
<rect x="200.0" y="720.0" width="90.0" height="130.0" rx="6.0" fill="#B9806A"/>
<rect x="208.0" y="728.0" width="74.0" height="114.0" rx="3.0" fill="#B8D6DE"/>
<line x1="245.0" y1="728.0" x2="245.0" y2="842.0" stroke="#B9806A" stroke-width="6.0" stroke-linecap="round"/>
<line x1="208.0" y1="778.5" x2="282.0" y2="778.5" stroke="#B9806A" stroke-width="5.0" stroke-linecap="round"/>
<polygon points="212.0,732.0 237.8,732.0 212.0,772.0" fill="#FFFFFF" opacity="0.35"/>
<g fill="#4B2E2E" stroke="#4B2E2E" stroke-width="6.0" stroke-linejoin="round" stroke-linecap="round">
<rect x="330.0" y="720.0" width="90.0" height="130.0" rx="6.0" fill="#4B2E2E"/>
</g>
<rect x="330.0" y="720.0" width="90.0" height="130.0" rx="6.0" fill="#B9806A"/>
<rect x="338.0" y="728.0" width="74.0" height="114.0" rx="3.0" fill="#B8D6DE"/>
<line x1="375.0" y1="728.0" x2="375.0" y2="842.0" stroke="#B9806A" stroke-width="6.0" stroke-linecap="round"/>
<line x1="338.0" y1="778.5" x2="412.0" y2="778.5" stroke="#B9806A" stroke-width="5.0" stroke-linecap="round"/>
<polygon points="342.0,732.0 367.8,732.0 342.0,772.0" fill="#FFFFFF" opacity="0.35"/>
<g fill="#4B2E2E" stroke="#4B2E2E" stroke-width="6.0" stroke-linejoin="round" stroke-linecap="round">
<rect x="200.0" y="920.0" width="90.0" height="130.0" rx="6.0" fill="#4B2E2E"/>
</g>
<rect x="200.0" y="920.0" width="90.0" height="130.0" rx="6.0" fill="#B9806A"/>
<rect x="208.0" y="928.0" width="74.0" height="114.0" rx="3.0" fill="#B8D6DE"/>
<line x1="245.0" y1="928.0" x2="245.0" y2="1042.0" stroke="#B9806A" stroke-width="6.0" stroke-linecap="round"/>
<line x1="208.0" y1="978.5" x2="282.0" y2="978.5" stroke="#B9806A" stroke-width="5.0" stroke-linecap="round"/>
<polygon points="212.0,932.0 237.8,932.0 212.0,972.0" fill="#FFFFFF" opacity="0.35"/>
<g fill="#4B2E2E" stroke="#4B2E2E" stroke-width="6.0" stroke-linejoin="round" stroke-linecap="round">
<rect x="330.0" y="920.0" width="90.0" height="130.0" rx="6.0" fill="#4B2E2E"/>
</g>
<rect x="330.0" y="920.0" width="90.0" height="130.0" rx="6.0" fill="#B9806A"/>
<rect x="338.0" y="928.0" width="74.0" height="114.0" rx="3.0" fill="#B8D6DE"/>
<line x1="375.0" y1="928.0" x2="375.0" y2="1042.0" stroke="#B9806A" stroke-width="6.0" stroke-linecap="round"/>
<line x1="338.0" y1="978.5" x2="412.0" y2="978.5" stroke="#B9806A" stroke-width="5.0" stroke-linecap="round"/>
<polygon points="342.0,932.0 367.8,932.0 342.0,972.0" fill="#FFFFFF" opacity="0.35"/>
<path d="M330,690 Q380,705 430,690" fill="none" stroke="#3E3A3A" stroke-width="3.0" stroke-linecap="round" stroke-linejoin="round"/>
<rect x="340.0" y="695.0" width="16.0" height="36.0" rx="3.0" fill="#E67D6B"/>
<rect x="362.0" y="695.0" width="16.0" height="36.0" rx="3.0" fill="#7CA4C9"/>
<rect x="384.0" y="695.0" width="16.0" height="36.0" rx="3.0" fill="#F2D27A"/>
<rect x="406.0" y="695.0" width="16.0" height="36.0" rx="3.0" fill="#9BC48A"/>
</g>
<path d="M904.3,1214.6 Q916.1,1243.6 876.8,1257.5 Q867.0,1288.3 831.5,1280.2 Q798.3,1302.9 775.6,1279.1 Q740.9,1271.5 739.3,1239.7 Q725.5,1216.8 750.4,1193.1 Q748.4,1162.6 780.3,1157.3 Q803.4,1128.0 833.5,1139.3 Q862.2,1142.5 873.6,1174.1 Q910.7,1188.1 904.3,1214.6 Z" fill="#7FB06A"/>
<path d="M1045.6,1222.3 Q1056.9,1242.8 1009.0,1253.5 Q995.1,1277.7 951.3,1275.7 Q912.4,1282.1 881.3,1264.4 Q823.4,1263.6 821.1,1241.7 Q786.5,1222.8 825.6,1203.7 Q826.6,1178.9 872.2,1172.5 Q905.3,1161.8 949.0,1175.1 Q996.0,1169.8 1012.1,1189.7 Q1056.3,1201.4 1045.6,1222.3 Z" fill="#6FA35A"/>
<path d="M1523.3,1254.0 Q1546.3,1278.0 1515.6,1289.9 Q1500.1,1310.6 1454.9,1303.7 Q1419.2,1316.5 1393.3,1298.8 Q1354.7,1294.6 1357.0,1270.8 Q1331.9,1254.6 1361.3,1238.0 Q1359.4,1216.3 1397.9,1213.7 Q1421.9,1192.5 1455.1,1203.7 Q1493.2,1200.3 1505.0,1223.0 Q1540.1,1233.1 1523.3,1254.0 Z" fill="#4F8443"/>
<path d="M970.1,1286.5 Q980.4,1313.9 952.4,1329.8 Q936.8,1350.0 901.7,1344.2 Q872.7,1359.4 851.8,1339.3 Q818.4,1333.9 814.7,1308.6 Q789.4,1286.6 815.5,1264.6 Q818.6,1239.1 852.0,1233.9 Q872.8,1210.3 902.2,1226.2 Q938.0,1220.2 952.5,1243.1 Q986.2,1257.3 970.1,1286.5 Z" fill="#7FB06A"/>
<path d="M1710.4,1289.8 Q1725.5,1312.8 1695.2,1324.5 Q1683.4,1347.0 1646.0,1340.6 Q1612.2,1355.7 1587.4,1341.4 Q1550.8,1336.4 1554.4,1308.6 Q1533.7,1289.6 1553.2,1270.8 Q1552.4,1245.9 1591.4,1242.8 Q1614.6,1228.0 1645.7,1240.2 Q1680.3,1236.4 1694.1,1255.7 Q1720.7,1268.2 1710.4,1289.8 Z" fill="#4F8443"/>
<path d="M866.2,1206.8 Q885.4,1230.4 843.2,1242.6 Q827.4,1264.7 775.9,1256.7 Q732.3,1273.5 702.2,1255.8 Q655.0,1250.3 651.7,1226.3 Q633.9,1208.4 665.8,1189.8 Q660.2,1163.9 704.5,1159.8 Q735.6,1140.5 777.4,1152.5 Q824.6,1147.8 838.4,1173.0 Q884.5,1184.1 866.2,1206.8 Z" fill="#4F8443"/>
<path d="M687.6,1268.1 Q695.3,1294.1 656.1,1307.9 Q643.6,1335.7 609.8,1334.0 Q576.5,1348.9 551.8,1325.7 Q510.3,1322.9 513.4,1291.0 Q481.6,1266.8 506.7,1243.3 Q510.5,1215.7 553.1,1212.2 Q576.6,1189.2 609.1,1205.1 Q647.6,1198.6 660.9,1225.1 Q696.8,1240.5 687.6,1268.1 Z" fill="#7FB06A"/>
<path d="M1172.3,1317.8 Q1186.9,1343.2 1159.8,1359.0 Q1143.7,1384.4 1094.4,1376.7 Q1057.4,1388.7 1029.8,1365.9 Q984.2,1362.1 979.1,1338.8 Q955.7,1318.1 981.4,1297.2 Q985.1,1273.9 1031.0,1270.8 Q1059.1,1246.3 1095.5,1255.2 Q1137.9,1252.3 1150.7,1281.1 Q1186.4,1294.0 1172.3,1317.8 Z" fill="#4F8443"/>
<path d="M1303.8,1288.1 Q1322.5,1312.5 1293.3,1324.4 Q1279.7,1348.3 1244.5,1346.6 Q1211.2,1358.3 1185.9,1338.8 Q1154.9,1332.8 1160.3,1305.0 Q1137.0,1287.4 1155.9,1270.1 Q1158.9,1248.3 1190.3,1242.6 Q1214.3,1224.5 1244.2,1231.0 Q1278.9,1228.9 1291.9,1252.7 Q1315.0,1265.9 1303.8,1288.1 Z" fill="#6FA35A"/>
<path d="M1099.8,1219.6 Q1128.3,1244.1 1083.6,1255.9 Q1065.1,1277.6 1005.7,1269.3 Q956.7,1286.0 923.1,1268.0 Q880.2,1260.9 881.7,1236.5 Q835.9,1218.0 866.3,1200.3 Q863.4,1173.8 921.5,1170.1 Q958.9,1152.8 1008.0,1164.3 Q1058.5,1163.1 1079.8,1184.7 Q1125.8,1196.1 1099.8,1219.6 Z" fill="#4F8443"/>
<path d="M1139.7,1259.5 Q1150.3,1284.3 1110.6,1299.5 Q1094.5,1328.0 1040.3,1321.8 Q995.0,1333.1 960.1,1313.0 Q917.0,1305.7 916.9,1279.0 Q869.8,1257.4 900.2,1236.9 Q904.6,1209.8 957.5,1203.7 Q991.7,1189.7 1037.6,1205.1 Q1083.5,1202.7 1104.6,1222.1 Q1149.4,1235.9 1139.7,1259.5 Z" fill="#6FA35A"/>
<path d="M1344.9,1203.4 Q1363.4,1229.2 1331.5,1244.5 Q1310.1,1266.3 1259.1,1261.4 Q1212.0,1277.8 1177.0,1261.8 Q1133.4,1253.1 1132.7,1224.3 Q1094.9,1202.0 1121.4,1180.3 Q1130.7,1156.0 1182.5,1150.1 Q1216.0,1127.6 1260.7,1140.3 Q1308.8,1136.1 1320.8,1167.1 Q1364.6,1179.0 1344.9,1203.4 Z" fill="#7FB06A"/>
<path d="M1460.2,1327.3 Q1481.1,1355.4 1432.3,1368.8 Q1412.6,1393.9 1368.0,1393.1 Q1322.9,1409.9 1290.0,1386.7 Q1242.1,1379.7 1238.7,1350.8 Q1210.4,1329.6 1254.4,1307.1 Q1251.7,1277.1 1291.3,1269.1 Q1323.1,1244.1 1367.9,1261.9 Q1415.9,1259.0 1436.9,1283.5 Q1481.9,1298.1 1460.2,1327.3 Z" fill="#6FA35A"/>
<path d="M1506.9,1318.9 Q1524.7,1346.5 1480.1,1360.7 Q1460.5,1384.2 1414.5,1381.0 Q1368.6,1402.0 1337.0,1379.6 Q1286.4,1374.0 1288.1,1342.2 Q1259.0,1320.4 1298.5,1297.9 Q1294.0,1265.3 1335.8,1257.0 Q1369.6,1232.5 1416.4,1250.4 Q1459.9,1250.4 1476.8,1278.7 Q1516.7,1293.6 1506.9,1318.9 Z" fill="#7FB06A"/>
<path d="M117.6,1279.2 Q130.8,1310.8 100.6,1327.8 Q88.4,1355.2 49.6,1343.1 Q17.8,1365.5 -4.2,1345.0 Q-33.6,1336.9 -29.1,1301.3 Q-46.9,1278.6 -31.9,1256.2 Q-33.0,1226.8 3.0,1225.0 Q23.8,1201.0 50.5,1211.1 Q82.3,1205.4 90.7,1238.3 Q120.8,1253.7 117.6,1279.2 Z" fill="#6FA35A"/>
<path d="M741.8,1322.2 Q759.8,1344.3 717.0,1355.4 Q702.1,1379.2 656.8,1375.9 Q616.5,1385.2 585.3,1367.7 Q534.8,1365.2 538.0,1340.3 Q508.5,1321.0 527.9,1302.1 Q535.0,1280.0 583.1,1274.7 Q614.7,1257.3 656.6,1268.8 Q708.4,1263.2 728.5,1284.1 Q759.4,1298.4 741.8,1322.2 Z" fill="#6FA35A"/>
<path d="M1123.3,1321.0 Q1138.8,1342.6 1106.7,1353.6 Q1094.2,1375.1 1056.8,1370.6 Q1024.6,1381.8 1000.7,1364.4 Q960.4,1362.1 962.6,1338.5 Q931.7,1319.6 952.8,1301.4 Q955.8,1278.6 998.3,1275.1 Q1024.9,1256.8 1058.7,1264.9 Q1094.4,1265.0 1109.8,1286.9 Q1137.8,1299.1 1123.3,1321.0 Z" fill="#4F8443"/>
<path d="M995.8,1199.6 Q1002.4,1218.7 960.0,1230.6 Q946.1,1256.8 896.3,1254.7 Q850.2,1264.7 815.5,1242.7 Q761.8,1238.4 753.6,1218.3 Q729.0,1200.9 766.7,1182.9 Q762.5,1159.1 814.6,1155.8 Q848.6,1138.1 894.3,1149.4 Q941.6,1148.4 961.5,1168.0 Q1013.5,1178.6 995.8,1199.6 Z" fill="#6FA35A"/>
</svg>
