<svg xmlns="http://www.w3.org/2000/svg" width="560" height="172" viewBox="0 0 560 172">
<title>Góc Phố Việt — nhân vật (original vector art)</title>
<g transform="translate(78,141)">
<g fill="#4B2E2E" stroke="#4B2E2E" stroke-width="6.0" stroke-linejoin="round" stroke-linecap="round">
<path d="M-60,-84 Q-70,-30 -52,-14 L-28,-14 L-30,-62 Z" fill="#4B2E2E"/>
<path d="M44,-84 Q70,-50 58,-16 L44,-18 Z" fill="#4B2E2E"/>
</g>
<path d="M-60,-84 Q-70,-30 -52,-14 L-28,-14 L-30,-62 Z" fill="#4A3328"/>
<path d="M44,-84 Q70,-50 58,-16 L44,-18 Z" fill="#4A3328"/>
<g fill="#4B2E2E" stroke="#4B2E2E" stroke-width="6.0" stroke-linejoin="round" stroke-linecap="round">
<circle cx="-52.0" cy="-54.0" r="13.0" fill="#4B2E2E"/>
<ellipse cx="4.0" cy="-62.0" rx="58.0" ry="57.0" fill="#4B2E2E"/>
</g>
<circle cx="-52.0" cy="-54.0" r="13.0" fill="#F6C9A0"/>
<ellipse cx="4.0" cy="-62.0" rx="58.0" ry="57.0" fill="#F6C9A0"/>
<path d="M-55,-58 q5,4 1,10" fill="none" stroke="#D99A72" stroke-width="3.0" stroke-linecap="round" stroke-linejoin="round"/>
<g fill="#4B2E2E" stroke="#4B2E2E" stroke-width="6.0" stroke-linejoin="round" stroke-linecap="round">
<path d="M-56,-46 Q-64,-128 4,-128 Q68,-128 63,-84 Q34,-90 -18,-72 Q-40,-80 -45,-46 Z" fill="#4B2E2E"/>
</g>
<path d="M-56,-46 Q-64,-128 4,-128 Q68,-128 63,-84 Q34,-90 -18,-72 Q-40,-80 -45,-46 Z" fill="#4A3328"/>
<g fill="#4B2E2E" stroke="#4B2E2E" stroke-width="4.0" stroke-linejoin="round" stroke-linecap="round">
<rect x="20.0" y="-116.0" width="26.0" height="9.0" rx="4.0" fill="#4B2E2E"/>
</g>
<rect x="20.0" y="-116.0" width="26.0" height="9.0" rx="4.0" fill="#F2C14E"/>
</g>
<g transform="translate(208,123)">
<g fill="#4B2E2E" stroke="#4B2E2E" stroke-width="6.0" stroke-linejoin="round" stroke-linecap="round">
<rect x="-11.0" y="-110.0" width="22.0" height="22.0" rx="6.0" fill="#4B2E2E"/>
</g>
<rect x="-11.0" y="-110.0" width="22.0" height="22.0" rx="6.0" fill="#F6C9A0"/>
<g fill="#4B2E2E" stroke="#4B2E2E" stroke-width="6.0" stroke-linejoin="round" stroke-linecap="round">
<path d="M-34,2 L-38,-80 Q-38,-98 -20,-98 L20,-98 Q38,-98 38,-80 L34,2 Z" fill="#4B2E2E"/>
<path d="M-36,-16 L36,-16 L48,36 L-48,36 Z" fill="#4B2E2E"/>
</g>
<path d="M-34,2 L-38,-80 Q-38,-98 -20,-98 L20,-98 Q38,-98 38,-80 L34,2 Z" fill="#2B3A5E"/>
<path d="M-36,-16 L36,-16 L48,36 L-48,36 Z" fill="#55607A"/>
<polygon points="-14.0,-98.0 0.0,-66.0 14.0,-98.0" fill="#FFFFFF" stroke="#4B2E2E" stroke-width="2.5" stroke-linejoin="round"/>
<line x1="0.0" y1="-66.0" x2="0.0" y2="0.0" stroke="#1E2A44" stroke-width="3.0" stroke-linecap="round"/>
<circle cx="6.0" cy="-46.0" r="3.5" fill="#D9B45A"/>
<circle cx="6.0" cy="-24.0" r="3.5" fill="#D9B45A"/>
</g>
<g transform="translate(287,22)">
<g fill="#4B2E2E" stroke="#4B2E2E" stroke-width="6.0" stroke-linejoin="round" stroke-linecap="round">
<rect x="-12.0" y="-8.0" width="24.0" height="70.0" rx="12.0" fill="#4B2E2E"/>
<circle cx="0.0" cy="64.0" r="13.0" fill="#4B2E2E"/>
</g>
<rect x="-12.0" y="-8.0" width="24.0" height="70.0" rx="12.0" fill="#F6C9A0"/>
<circle cx="0.0" cy="64.0" r="13.0" fill="#F6C9A0"/>
<g fill="#4B2E2E" stroke="#4B2E2E" stroke-width="6.0" stroke-linejoin="round" stroke-linecap="round">
<rect x="-13.0" y="-9.0" width="26.0" height="62.0" rx="12.0" fill="#4B2E2E"/>
</g>
<rect x="-13.0" y="-9.0" width="26.0" height="62.0" rx="12.0" fill="#2B3A5E"/>
</g>
<g transform="translate(333,21)">
<g fill="#4B2E2E" stroke="#4B2E2E" stroke-width="6.0" stroke-linejoin="round" stroke-linecap="round">
<rect x="-15.0" y="-8.0" width="30.0" height="56.0" rx="14.0" fill="#4B2E2E"/>
</g>
<rect x="-15.0" y="-8.0" width="30.0" height="56.0" rx="14.0" fill="#F6C9A0"/>
</g>
<g transform="translate(381,19)">
<g fill="#4B2E2E" stroke="#4B2E2E" stroke-width="6.0" stroke-linejoin="round" stroke-linecap="round">
<rect x="-12.0" y="-6.0" width="24.0" height="44.0" rx="11.0" fill="#4B2E2E"/>
</g>
<rect x="-12.0" y="-6.0" width="24.0" height="44.0" rx="11.0" fill="#F6C9A0"/>
<g fill="#4B2E2E" stroke="#4B2E2E" stroke-width="5.0" stroke-linejoin="round" stroke-linecap="round">
<rect x="-12.0" y="14.0" width="24.0" height="24.0" rx="6.0" fill="#4B2E2E"/>
</g>
<rect x="-12.0" y="14.0" width="24.0" height="24.0" rx="6.0" fill="#FFFFFF"/>
<g fill="#4B2E2E" stroke="#4B2E2E" stroke-width="6.0" stroke-linejoin="round" stroke-linecap="round">
<path d="M-15,32 L14,32 Q30,34 30,44 Q30,48 24,48 L-15,48 Z" fill="#4B2E2E"/>
</g>
<path d="M-15,32 L14,32 Q30,34 30,44 Q30,48 24,48 L-15,48 Z" fill="#2E2B2B"/>
<path d="M-13,45 L27,45" fill="none" stroke="#FFFFFF" stroke-width="2.5" stroke-linecap="round" stroke-linejoin="round" opacity="0.7"/>
</g>
<g transform="translate(457,17)">
<path d="M-12,14 Q-14,-10 0,-2 Q14,-10 12,14" fill="none" stroke="#B98652" stroke-width="5.0" stroke-linecap="round" stroke-linejoin="round"/>
<g fill="#4B2E2E" stroke="#4B2E2E" stroke-width="6.0" stroke-linejoin="round" stroke-linecap="round">
<path d="M-24,10 L24,10 L28,58 L-28,58 Z" fill="#4B2E2E"/>
</g>
<path d="M-24,10 L24,10 L28,58 L-28,58 Z" fill="#F3E6CC"/>
<circle cx="0.0" cy="34.0" r="8.0" fill="#E99AA0"/>
</g>
</svg>
